<svg width="32" height="32" fill="none" xmlns="http://www.w3.org/2000/svg"><path fill="#EE3643" d="M0 0h32v32H0z"/><path fill-rule="evenodd" clip-rule="evenodd" d="M6 5.99561C5 6 5 7 5 7v5c0 .9626 1 .9967 1 .9967h2.81542c.61988 0 .51288.4373.51288.4373s-.79095 4.2656-.87617 4.9872c-.08553.7223-.59842 1.1817-.59842 1.1817s-1.29822.3937-1.57597.5468c-.27775.1532-.27775.8504-.27775.8504H17v-.3694c0-.481-2.5636-1.0278-3.3969-1.1154-.8335-.0872-.6625-.6564-.6625-.6564l.3418-2.8588h.9617l.3536-2h-.9617l.1061-1H16.5c1.8597-.1971 3.5-1.1773 3.5-1.1773V7.5c-1.4746-1.0718-4.1199-1.50439-4.1199-1.50439H6zm18.6213 2.70436h4.0371c.1842 0 .3338.2924.3338.74223 0 .44983-.1496.8578-.3338.8578h-4.0371c-.199.7498-.6638 1.7-1.2052 1.7H21V6.99997h2.4161c.5417 0 1.0062.95017 1.2052 1.7zM6.59842 25.9999C6 25.9999 6 25.3274 6 25.3274v-3.3276h11v3.3496c0 .5901-.641.6505-.641.6505H6.59842zM16 7.50764v-.01526c0-.2708-.1408-.49237-.3128-.49237H6.3128c-.17204 0-.3128.22157-.3128.49237v.01526c0 .2708.14076.49237.3128.49237h9.3744c.172 0 .3128-.22157.3128-.49237z" fill="#fff"/></svg>